<?xml version="1.0" standalone="no"?>
<!DOCTYPE svg PUBLIC "-//W3C//DTD SVG 20010904//EN"
 "http://www.w3.org/TR/2001/REC-SVG-20010904/DTD/svg10.dtd">
<svg version="1.0" xmlns="http://www.w3.org/2000/svg"
 width="587.000000pt" height="587.000000pt" viewBox="0 0 587.000000 587.000000"
 preserveAspectRatio="xMidYMid meet">
<metadata>
Created by potrace 1.14, written by Peter Selinger 2001-2017
</metadata>
<g transform="translate(0.000000,587.000000) scale(0.100000,-0.100000)"
fill="#000000" stroke="none">
<path d="M2739 5866 c-2 -2 -41 -7 -85 -10 -45 -4 -93 -9 -105 -11 -13 -2 -67
-11 -119 -20 -52 -9 -140 -27 -195 -41 -55 -14 -108 -27 -118 -29 -9 -2 -21
-6 -25 -9 -5 -3 -19 -7 -33 -10 -87 -17 -511 -200 -559 -242 -8 -7 -22 -14
-30 -16 -8 -2 -17 -5 -20 -8 -12 -12 -70 -50 -76 -50 -6 0 -187 -124 -211
-145 -7 -5 -18 -15 -25 -20 -72 -57 -119 -96 -152 -125 -71 -63 -226 -221
-226 -231 0 -5 -7 -9 -15 -9 -8 0 -15 -4 -15 -10 0 -9 -23 -39 -55 -74 -6 -6
-43 -54 -83 -106 -40 -52 -77 -100 -82 -107 -6 -7 -10 -15 -10 -19 0 -3 -10
-20 -22 -37 -26 -36 -27 -37 -90 -147 -27 -45 -48 -86 -48 -91 0 -5 -5 -9 -12
-9 -6 0 -9 -3 -5 -6 3 -4 -5 -27 -19 -51 -65 -117 -160 -373 -209 -560 -24
-96 -29 -114 -40 -173 -3 -14 -7 -35 -9 -47 -8 -38 -22 -141 -33 -243 -9 -81
-9 -486 0 -560 4 -30 9 -75 12 -100 3 -25 8 -56 11 -68 3 -13 7 -43 10 -65 3
-23 12 -69 21 -102 8 -33 17 -71 20 -85 7 -43 43 -161 80 -265 58 -164 62
-174 93 -236 17 -32 27 -59 23 -59 -5 0 -3 -4 2 -8 6 -4 32 -50 59 -102 27
-52 55 -102 62 -111 8 -9 12 -18 9 -21 -3 -3 4 -13 15 -23 11 -10 20 -22 20
-27 0 -9 57 -97 69 -108 3 -3 19 -25 36 -50 16 -25 34 -49 40 -55 6 -5 25 -29
42 -53 69 -96 280 -318 375 -394 22 -18 51 -43 64 -55 13 -13 27 -23 33 -23 5
0 11 -4 13 -8 7 -18 286 -212 304 -212 4 0 15 -6 23 -14 9 -7 50 -31 91 -52
41 -22 76 -42 78 -46 2 -5 8 -8 13 -8 4 0 32 -11 61 -24 113 -50 155 -68 223
-92 83 -30 184 -64 205 -69 8 -2 40 -11 72 -19 98 -27 257 -58 363 -71 22 -3
58 -8 80 -11 64 -10 484 -12 555 -3 36 4 92 10 125 14 67 7 267 47 360 71 75
19 66 16 155 44 41 14 77 25 80 25 3 1 18 7 33 13 16 7 31 12 35 12 4 1 25 9
47 20 22 11 43 19 46 20 11 0 230 107 304 148 356 197 689 495 940 842 78 108
85 119 87 127 1 5 10 17 20 27 10 11 18 24 18 29 0 5 8 21 19 35 23 33 126
234 165 322 99 225 191 550 221 785 27 209 27 614 1 765 -3 14 -7 45 -10 70
-7 50 -11 73 -26 145 -6 28 -13 59 -15 70 -4 23 -25 101 -54 197 -18 63 -80
238 -100 283 -44 100 -116 243 -129 258 -8 9 -12 17 -8 17 4 0 -2 13 -13 29
-12 16 -21 32 -21 36 0 3 -13 26 -30 50 -16 24 -30 46 -30 50 0 3 -5 11 -10
18 -6 7 -46 62 -89 122 -44 61 -90 122 -103 137 -13 14 -38 44 -55 66 -72 87
-345 350 -377 361 -6 2 -15 10 -21 16 -15 18 -121 95 -215 156 -299 195 -623
332 -970 408 -123 27 -129 29 -224 41 -45 6 -92 13 -106 16 -28 6 -495 15
-501 10z"/>
</g>
</svg>
